<?xml version="1.0" encoding="UTF-8"?><svg id="a" xmlns="http://www.w3.org/2000/svg" viewBox="0 0 400 310"><path class="b" d="M307.72,61.28c-31.92,4.43-57.34,3.36-75.04-4.24,21.19-10.18,41.48-19.51,66.42-19.51,36.36,0,57.38,27.78,57.38,74.43,0,82.27-48.62,153.53-104.26,198.04,93.47-47.74,147.77-146.87,147.77-214.37,0-56.33-39.31-95.63-80.08-95.63-44.98,0-70.49,19.93-119.56,50.04C163.08,26.98,121.35,0,84.08,0,20.46,0,0,63.61,0,97.96c0,78.17,69.78,173.73,148.61,212.04-66.54-53.57-108.4-118.21-105.94-202.71,1.71-47.22,25.15-65.45,59.49-69.12,49.47,0,83.66,45.16,145.24,45.16,20.25,0,42.1-9.09,60.33-22.05Z"/><path class="b" d="M201.04,239.43c15.5,15.64,4.07,32.85,41.47,70.57-2.73,0-40.84-23.29-41.47-37.71.63,14.42-36.21,37.71-40.21,37.71,36.14-36.45,25.33-55.57,40.21-70.57Z"/></svg>