<?xml version="1.0" encoding="UTF-8"?><svg id="a" xmlns="http://www.w3.org/2000/svg" xmlns:xlink="http://www.w3.org/1999/xlink" viewBox="0 0 100 49.69"><defs><style>.e{fill:url(#c);}.f{fill:url(#d);}.g{fill:url(#b);}</style><linearGradient id="b" x1="41.45" y1="39.15" x2="1.4" y2="-.9" gradientUnits="userSpaceOnUse"><stop offset="0" stop-color="#e1c59f"/><stop offset=".25" stop-color="#edd1b2"/><stop offset=".5" stop-color="#ebcca3"/><stop offset=".75" stop-color="#e6c67c"/><stop offset="1" stop-color="#f2cdb4"/></linearGradient><linearGradient id="c" x1="65.36" y1="41.6" x2="33.75" y2="9.99" xlink:href="#b"/><linearGradient id="d" x1="101.83" y1="42.13" x2="67.98" y2="8.28" xlink:href="#b"/></defs><path class="g" d="M0,.5h42.32c-2.49,1.08-4.61,3.31-5.82,5.26-.51-.91-1.88-1.76-4.93-1.76h-5.47v39.56c0,2.23,2.27,3.99,5.32,3.99v1.65H11.98v-1.65c3.23,0,5.23-2.05,5.23-4.46V3.94h-6C6.05,3.94,1.32,6.94,1.32,12.34H0V.5Z"/><path class="e" d="M33.27,34.07v10.91c4.47,3.32,10,4.7,16.99,4.7,8.76,0,15.99-6.63,15.99-14.5,0-3.85-1.71-7.94-5.8-10.56l-14.58-8.33c-1.98-1.21-3.76-3.14-3.76-6.66,0-3.92,2.85-7.21,7.76-7.21,6.11,0,11.02,6.66,11.41,10.19h.86s0-9.72,0-9.72c-2.96-2.25-6.65-2.9-11.65-2.9-8.87,0-14.96,6.26-14.96,13.72,0,5.16,3.62,8.73,7.45,10.91l11.44,6.17c2.57,1.48,4.86,4.03,4.86,7.92,0,4.77-3.23,8.39-8.79,8.39-8.51,0-15.1-7.26-16.26-13.01l-.96-.02Z"/><path class="f" d="M97.76,15.43c.2.04,1.8,0,1.8,0V5.48c-2.59-2.97-8.41-5.17-15.09-5.17-12.11,0-21.99,10.86-21.99,23.75,1.53,1.1,5.53,4.51,5.53,11.13,0,3.14-.64,4.57-1.25,5.76,4.23,6.3,10.92,8.72,17.83,8.72,6.5,0,11.2-2.24,15.41-5.7v-9.52h-1.8c-.7,5.46-6.63,11.87-13.49,11.87-8.02,0-14.03-6.77-14.03-21.47s6.66-21.99,13.76-21.99c6.68,0,11.89,5.24,13.32,12.58Z"/></svg>